<svg width="80" height="80" viewBox="0 0 80 80" fill="none" xmlns="http://www.w3.org/2000/svg">
<path d="M71.1111 0H33.3333V33.8462H80V12.3077C80 5.51077 76.02 0 71.1111 0ZM33.3333 80H71.1111C76.02 80 80 74.4892 80 66.1538V46.1538H33.3333V80ZM0 46.1538V66.1538C0 74.4892 3.98 80 8.88889 80H24.4444V46.1538H0ZM24.4444 0H8.88889C3.98 0 0 5.51077 0 12.3077V33.8462H24.4444V0Z" fill="#C60C30"/>
<path d="M33.3333 0H24.4444V33.8462H0V46.1538H24.4444V80H33.3333V46.1538H80V33.8462H33.3333V0Z" fill="#EEEEEE"/>
</svg>
