<svg width="22" height="23" viewBox="0 0 22 23" fill="none" xmlns="http://www.w3.org/2000/svg">
<path d="M18 11.475C18 10.0917 17.6333 8.82933 16.9 7.688C16.1667 6.54667 15.1833 5.69233 13.95 5.125C13.7 5.00833 13.5167 4.82933 13.4 4.588C13.2833 4.34667 13.2667 4.10067 13.35 3.85C13.45 3.58333 13.625 3.39167 13.875 3.275C14.125 3.15833 14.3833 3.15833 14.65 3.275C16.2667 3.99167 17.5627 5.08333 18.538 6.55C19.5133 8.01667 20.0007 9.65833 20 11.475C19.9993 13.2917 19.5117 14.9333 18.537 16.4C17.5623 17.8667 16.2667 18.9583 14.65 19.675C14.3833 19.7917 14.125 19.7917 13.875 19.675C13.625 19.5583 13.45 19.3667 13.35 19.1C13.2667 18.85 13.2833 18.6043 13.4 18.363C13.5167 18.1217 13.7 17.9423 13.95 17.825C15.1833 17.2583 16.1667 16.4043 16.9 15.263C17.6333 14.1217 18 12.859 18 11.475ZM6 14.5H3C2.71667 14.5 2.47933 14.404 2.288 14.212C2.09667 14.02 2.00067 13.7827 2 13.5V9.5C2 9.21667 2.096 8.97933 2.288 8.788C2.48 8.59667 2.71733 8.50067 3 8.5H6L9.3 5.2C9.61667 4.88333 9.97933 4.81233 10.388 4.987C10.7967 5.16167 11.0007 5.47433 11 5.925V17.075C11 17.525 10.796 17.8377 10.388 18.013C9.98 18.1883 9.61733 18.1173 9.3 17.8L6 14.5ZM15.5 11.5C15.5 12.1833 15.3543 12.8293 15.063 13.438C14.7717 14.0467 14.3673 14.559 13.85 14.975C13.6667 15.1083 13.4793 15.1377 13.288 15.063C13.0967 14.9883 13.0007 14.834 13 14.6V8.35C13 8.11667 13.096 7.96267 13.288 7.888C13.48 7.81333 13.6673 7.84233 13.85 7.975C14.3667 8.39167 14.771 8.90833 15.063 9.525C15.355 10.1417 15.5007 10.8 15.5 11.5ZM9 14.65V8.35L6.85 10.5H4V12.5H6.85L9 14.65ZM1 6.5C0.716667 6.5 0.479333 6.404 0.288 6.212C0.0966666 6.02 0.000666667 5.78267 0 5.5V2.5C0 1.95 0.196 1.47933 0.588 1.088C0.98 0.696667 1.45067 0.500667 2 0.5H5C5.28333 0.5 5.521 0.596 5.713 0.788C5.905 0.98 6.00067 1.21733 6 1.5C5.99933 1.78267 5.90333 2.02033 5.712 2.213C5.52067 2.40567 5.28333 2.50133 5 2.5H2V5.5C2 5.78333 1.904 6.021 1.712 6.213C1.52 6.405 1.28267 6.50067 1 6.5ZM17 22.5C16.7167 22.5 16.4793 22.404 16.288 22.212C16.0967 22.02 16.0007 21.7827 16 21.5C15.9993 21.2173 16.0953 20.98 16.288 20.788C16.4807 20.596 16.718 20.5 17 20.5H20V17.5C20 17.2167 20.096 16.9793 20.288 16.788C20.48 16.5967 20.7173 16.5007 21 16.5C21.2827 16.4993 21.5203 16.5953 21.713 16.788C21.9057 16.9807 22.0013 17.218 22 17.5V20.5C22 21.05 21.8043 21.521 21.413 21.913C21.0217 22.305 20.5507 22.5007 20 22.5H17Z" fill="white"/>
</svg>
