<svg width="88" height="88" viewBox="0 0 88 88" fill="none" xmlns="http://www.w3.org/2000/svg">
<g clip-path="url(#clip0_233_202)">
<path fill-rule="evenodd" clip-rule="evenodd" d="M35.5386 25.3846C35.5386 23.1405 36.4301 20.9882 38.0169 19.4014C39.6037 17.8145 41.756 16.9231 44.0001 16.9231C46.2443 16.9231 48.3965 17.8145 49.9833 19.4014C51.5702 20.9882 52.4617 23.1405 52.4617 25.3846V38.9231C52.4617 41.1672 51.5702 43.3194 49.9833 44.9063C48.3965 46.4931 46.2443 47.3846 44.0001 47.3846C41.756 47.3846 39.6037 46.4931 38.0169 44.9063C36.4301 43.3194 35.5386 41.1672 35.5386 38.9231V25.3846Z" fill="black"/>
<path d="M43.9998 72.7692C34.4078 72.7692 28.769 72.0652 28.769 69.3846C28.769 66.704 34.4078 66 43.9998 66C53.5918 66 59.2306 66.704 59.2306 69.3846C59.2306 72.0652 53.5918 72.7692 43.9998 72.7692Z" fill="black"/>
<path d="M40.7373 55.8462H47.5065V71.0769H40.7373V55.8462Z" fill="black"/>
<path d="M57.5385 37.2308C57.5385 36.3331 57.8951 35.4722 58.5299 34.8375C59.1646 34.2028 60.0255 33.8462 60.9231 33.8462C61.8208 33.8462 62.6817 34.2028 63.3164 34.8375C63.9512 35.4722 64.3078 36.3331 64.3078 37.2308V43.3231C64.3078 53.1859 55.0982 60.9231 44.0001 60.9231C32.9019 60.9231 23.6924 53.1859 23.6924 43.3231V37.2308C23.6924 36.3331 24.049 35.4722 24.6837 34.8375C25.3185 34.2028 26.1793 33.8462 27.077 33.8462C27.9747 33.8462 28.8355 34.2028 29.4703 34.8375C30.105 35.4722 30.4616 36.3331 30.4616 37.2308V43.3231C30.4616 49.1615 36.405 54.1539 44.0001 54.1539C51.5952 54.1539 57.5385 49.1615 57.5385 43.3231V37.2308Z" fill="black"/>
<path fill-rule="evenodd" clip-rule="evenodd" d="M44 81.2308C64.5615 81.2308 81.2308 64.5615 81.2308 44C81.2308 23.4385 64.5615 6.76923 44 6.76923C23.4385 6.76923 6.76923 23.4385 6.76923 44C6.76923 64.5615 23.4385 81.2308 44 81.2308ZM44 88C68.3015 88 88 68.3015 88 44C88 19.6985 68.3015 0 44 0C19.6985 0 0 19.6985 0 44C0 68.3015 19.6985 88 44 88Z" fill="black"/>
</g>
<defs>
<clipPath id="clip0_233_202">
<rect width="88" height="88" fill="white"/>
</clipPath>
</defs>
</svg>
