<svg width="80" height="80" viewBox="0 0 80 80" fill="none" xmlns="http://www.w3.org/2000/svg">
<path d="M22.2222 0H8.88889C3.98 0 0 5.51077 0 12.3077V30.7692H22.2222V0ZM71.1111 0H35.5556V30.7692H80V12.3077C80 5.51077 76.02 0 71.1111 0ZM35.5556 80H71.1111C76.02 80 80 74.4892 80 66.1538V49.2308H35.5556V80ZM0 49.2308V66.1538C0 74.4892 3.98 80 8.88889 80H22.2222V49.2308H0Z" fill="#EF2B2D"/>
<path d="M32.2222 0H25.68L25.6244 35.3846H0V44.6154H25.6111L25.5556 80H32.2222V44.6154H80V35.3846H32.2222V0Z" fill="#002868"/>
<path d="M32.2222 80H35.5556V49.2308H80V44.6154H32.2222V80ZM35.5556 0H32.2222V35.3846H80V30.7692H35.5556V0ZM25.5556 0H22.2222V30.7692H0V35.3846H25.5556V0ZM0 44.6154V49.2308H22.2222V80H25.5556V44.6154H0Z" fill="#EDECEC"/>
</svg>
