<svg width="80" height="80" viewBox="0 0 80 80" fill="none" xmlns="http://www.w3.org/2000/svg">
<path d="M80 67.6923C80 74.4892 76.02 80 71.1111 80H8.88889C3.98 80 0 74.4892 0 67.6923V12.3077C0 5.51077 3.98 0 8.88889 0H71.1111C76.02 0 80 5.51077 80 12.3077V67.6923Z" fill="#C60A1D"/>
<path d="M0 21.5385H80V58.4615H0V21.5385Z" fill="#FFC400"/>
<path d="M20 36.9231V46.1539C20 51.2523 22.9844 55.3846 26.6667 55.3846C30.3489 55.3846 33.3333 51.2523 33.3333 46.1539V36.9231H20Z" fill="#EA596E"/>
<path d="M26.6665 33.8462H33.3332V43.077H26.6665V33.8462Z" fill="#F4A2B2"/>
<path d="M20 33.8462H26.6667V43.077H20V33.8462Z" fill="#DD2E44"/>
<path d="M26.6667 33.8461C30.3486 33.8461 33.3333 31.7797 33.3333 29.2307C33.3333 26.6817 30.3486 24.6154 26.6667 24.6154C22.9848 24.6154 20 26.6817 20 29.2307C20 31.7797 22.9848 33.8461 26.6667 33.8461Z" fill="#EA596E"/>
<path d="M26.6667 29.2307C30.3486 29.2307 33.3333 28.1976 33.3333 26.923C33.3333 25.6485 30.3486 24.6154 26.6667 24.6154C22.9848 24.6154 20 25.6485 20 26.923C20 28.1976 22.9848 29.2307 26.6667 29.2307Z" fill="#FFAC33"/>
<path d="M15.5557 33.8462H17.7779V55.3847H15.5557V33.8462ZM35.5557 33.8462H37.7779V55.3847H35.5557V33.8462Z" fill="#99AAB5"/>
<path d="M13.3335 52.3077H20.0002V55.3847H13.3335V52.3077ZM33.3335 52.3077H40.0002V55.3847H33.3335V52.3077ZM15.5557 30.7693H17.7779V33.8462H15.5557V30.7693ZM35.5557 30.7693H37.7779V33.8462H35.5557V30.7693Z" fill="#66757F"/>
</svg>
