<svg width="40" height="41" viewBox="0 0 40 41" fill="none" xmlns="http://www.w3.org/2000/svg">
<rect x="1" y="1.5" width="38" height="38" rx="19" fill="#035140"/>
<rect x="1" y="1.5" width="38" height="38" rx="19" stroke="#D4CDCD" stroke-width="2"/>
<path d="M27 20.475C27 19.0917 26.6333 17.8293 25.9 16.688C25.1667 15.5467 24.1833 14.6923 22.95 14.125C22.7 14.0083 22.5167 13.8293 22.4 13.588C22.2833 13.3467 22.2667 13.1007 22.35 12.85C22.45 12.5833 22.625 12.3917 22.875 12.275C23.125 12.1583 23.3833 12.1583 23.65 12.275C25.2667 12.9917 26.5627 14.0833 27.538 15.55C28.5133 17.0167 29.0007 18.6583 29 20.475C28.9993 22.2917 28.5117 23.9333 27.537 25.4C26.5623 26.8667 25.2667 27.9583 23.65 28.675C23.3833 28.7917 23.125 28.7917 22.875 28.675C22.625 28.5583 22.45 28.3667 22.35 28.1C22.2667 27.85 22.2833 27.6043 22.4 27.363C22.5167 27.1217 22.7 26.9423 22.95 26.825C24.1833 26.2583 25.1667 25.4043 25.9 24.263C26.6333 23.1217 27 21.859 27 20.475ZM15 23.5H12C11.7167 23.5 11.4793 23.404 11.288 23.212C11.0967 23.02 11.0007 22.7827 11 22.5V18.5C11 18.2167 11.096 17.9793 11.288 17.788C11.48 17.5967 11.7173 17.5007 12 17.5H15L18.3 14.2C18.6167 13.8833 18.9793 13.8123 19.388 13.987C19.7967 14.1617 20.0007 14.4743 20 14.925V26.075C20 26.525 19.796 26.8377 19.388 27.013C18.98 27.1883 18.6173 27.1173 18.3 26.8L15 23.5ZM24.5 20.5C24.5 21.1833 24.3543 21.8293 24.063 22.438C23.7717 23.0467 23.3673 23.559 22.85 23.975C22.6667 24.1083 22.4793 24.1377 22.288 24.063C22.0967 23.9883 22.0007 23.834 22 23.6V17.35C22 17.1167 22.096 16.9627 22.288 16.888C22.48 16.8133 22.6673 16.8423 22.85 16.975C23.3667 17.3917 23.771 17.9083 24.063 18.525C24.355 19.1417 24.5007 19.8 24.5 20.5ZM18 23.65V17.35L15.85 19.5H13V21.5H15.85L18 23.65ZM10 15.5C9.71667 15.5 9.47933 15.404 9.288 15.212C9.09667 15.02 9.00067 14.7827 9 14.5V11.5C9 10.95 9.196 10.4793 9.588 10.088C9.98 9.69667 10.4507 9.50067 11 9.5H14C14.2833 9.5 14.521 9.596 14.713 9.788C14.905 9.98 15.0007 10.2173 15 10.5C14.9993 10.7827 14.9033 11.0203 14.712 11.213C14.5207 11.4057 14.2833 11.5013 14 11.5H11V14.5C11 14.7833 10.904 15.021 10.712 15.213C10.52 15.405 10.2827 15.5007 10 15.5ZM26 31.5C25.7167 31.5 25.4793 31.404 25.288 31.212C25.0967 31.02 25.0007 30.7827 25 30.5C24.9993 30.2173 25.0953 29.98 25.288 29.788C25.4807 29.596 25.718 29.5 26 29.5H29V26.5C29 26.2167 29.096 25.9793 29.288 25.788C29.48 25.5967 29.7173 25.5007 30 25.5C30.2827 25.4993 30.5203 25.5953 30.713 25.788C30.9057 25.9807 31.0013 26.218 31 26.5V29.5C31 30.05 30.8043 30.521 30.413 30.913C30.0217 31.305 29.5507 31.5007 29 31.5H26Z" fill="#E5E5E5"/>
</svg>
