<svg width="80" height="80" viewBox="0 0 80 80" fill="none" xmlns="http://www.w3.org/2000/svg">
<path d="M78.7667 6.15385C77.2267 2.48923 74.3933 0 71.1111 0H40V6.15385H78.7667ZM0 61.5385H80V67.6923H0V61.5385ZM40 36.9231H80V43.0769H40V36.9231ZM40 24.6154H80V30.7692H40V24.6154ZM0 49.2308H80V55.3846H0V49.2308ZM8.88889 80H71.1111C74.3933 80 77.2267 77.5108 78.7667 73.8462H1.23333C2.77333 77.5108 5.60667 80 8.88889 80ZM40 12.3077H80V18.4615H40V12.3077Z" fill="#B22334"/>
<path d="M0.151111 69.7815C0.188889 70.0677 0.231111 70.3538 0.282222 70.6338C0.34 70.9446 0.411111 71.243 0.486667 71.5446C0.684444 72.3415 0.924444 73.1107 1.22667 73.8307L1.23333 73.8461H78.7667L78.7711 73.8338C79.0711 73.1169 79.3111 72.3477 79.5089 71.5538C79.5844 71.2492 79.6578 70.9446 79.7156 70.6277C79.7667 70.3507 79.8089 70.0677 79.8467 69.7815C79.9378 69.1046 80 68.4092 80 67.6923H0C0 68.4092 0.0622222 69.1015 0.151111 69.7815ZM0 55.3846H80V61.5384H0V55.3846ZM0 43.0769V49.2307H80V43.0769H40H0ZM40 30.7692H80V36.923H40V30.7692ZM40 18.4615H80V24.6153H40V18.4615ZM0 12.3077C0 11.5907 0.0666667 10.9015 0.151111 10.2184C0.0622222 10.8984 0 11.5907 0 12.3077ZM0.284444 9.36612C0.34 9.05227 0.417778 8.75381 0.488889 8.45227C0.413333 8.75381 0.342222 9.05535 0.284444 9.36612ZM40 12.3077H80C80 11.5907 79.9378 10.8953 79.8467 10.2153C79.8089 9.93227 79.7689 9.64919 79.7156 9.37227C79.6556 9.05535 79.5844 8.74765 79.5067 8.44304C79.3089 7.64919 79.0689 6.88304 78.7689 6.16612C78.7711 6.16304 78.7689 6.15689 78.7667 6.15381H40V12.3077Z" fill="#EEEEEE"/>
<path d="M40 0H8.88889C3.98 0 0 5.51077 0 12.3077V43.0769H40V0Z" fill="#3C3B6E"/>
<path d="M4.44678 8.38765L5.82011 9.76919L5.29567 12L6.66678 10.6215L8.04011 12L7.51567 9.76919L8.889 8.38765H7.19122L6.66678 6.15381L6.14456 8.38765H4.44678ZM8.89122 14.5415L10.2646 15.923L9.74011 18.1538L11.1112 16.7753L12.4846 18.1538L11.9601 15.923L13.3334 14.5415H11.6357L11.1112 12.3077L10.589 14.5415H8.89122ZM17.7801 14.5415L19.1534 15.923L18.629 18.1538L20.0001 16.7753L21.3734 18.1538L20.849 15.923L22.2223 14.5415H20.5246L20.0001 12.3077L19.4779 14.5415H17.7801ZM26.669 14.5415L28.0423 15.923L27.5179 18.1538L28.889 16.7753L30.2623 18.1538L29.7379 15.923L31.1112 14.5415H29.4134L28.889 12.3077L28.3668 14.5415H26.669ZM8.89122 26.8492L10.2646 28.2307L9.74011 30.4615L11.1112 29.083L12.4846 30.4615L11.9601 28.2307L13.3334 26.8492H11.6357L11.1112 24.6153L10.589 26.8492H8.89122ZM17.7801 26.8492L19.1534 28.2307L18.629 30.4615L20.0001 29.083L21.3734 30.4615L20.849 28.2307L22.2223 26.8492H20.5246L20.0001 24.6153L19.4779 26.8492H17.7801ZM26.669 26.8492L28.0423 28.2307L27.5179 30.4615L28.889 29.083L30.2623 30.4615L29.7379 28.2307L31.1112 26.8492H29.4134L28.889 24.6153L28.3668 26.8492H26.669ZM13.3357 8.38765L14.709 9.76919L14.1846 12L15.5557 10.6215L16.929 12L16.4046 9.76919L17.7779 8.38765H16.0801L15.5557 6.15381L15.0334 8.38765H13.3357ZM22.2246 8.38765L23.5979 9.76919L23.0734 12L24.4446 10.6215L25.8179 12L25.2934 9.76919L26.6668 8.38765H24.969L24.4446 6.15381L23.9223 8.38765H22.2246ZM31.1134 8.38765L32.4868 9.76919L31.9623 12L33.3334 10.6215L34.7068 12L34.1823 9.76919L35.5557 8.38765H33.8579L33.3334 6.15381L32.8112 8.38765H31.1134ZM4.44678 20.6953L5.82011 22.0769L5.29567 24.3077L6.66678 22.9292L8.04011 24.3077L7.51567 22.0769L8.889 20.6953H7.19122L6.66678 18.4615L6.14456 20.6953H4.44678ZM14.1846 24.3077L15.5557 22.9292L16.929 24.3077L16.4046 22.0769L17.7779 20.6953H16.0801L15.5557 18.4615L15.0334 20.6953H13.3357L14.709 22.0769L14.1846 24.3077ZM22.2246 20.6953L23.5979 22.0769L23.0734 24.3077L24.4446 22.9292L25.8179 24.3077L25.2934 22.0769L26.6668 20.6953H24.969L24.4446 18.4615L23.9223 20.6953H22.2246ZM31.1134 20.6953L32.4868 22.0769L31.9623 24.3077L33.3334 22.9292L34.7068 24.3077L34.1823 22.0769L35.5557 20.6953H33.8579L33.3334 18.4615L32.8112 20.6953H31.1134ZM4.44678 33.003L5.82011 34.3846L5.29567 36.6153L6.66678 35.2369L8.04011 36.6153L7.51567 34.3846L8.889 33.003H7.19122L6.66678 30.7692L6.14456 33.003H4.44678ZM14.1846 36.6153L15.5557 35.2369L16.929 36.6153L16.4046 34.3846L17.7779 33.003H16.0801L15.5557 30.7692L15.0334 33.003H13.3357L14.709 34.3846L14.1846 36.6153ZM22.2246 33.003L23.5979 34.3846L23.0734 36.6153L24.4446 35.2369L25.8179 36.6153L25.2934 34.3846L26.6668 33.003H24.969L24.4446 30.7692L23.9223 33.003H22.2246ZM31.1134 33.003L32.4868 34.3846L31.9623 36.6153L33.3334 35.2369L34.7068 36.6153L34.1823 34.3846L35.5557 33.003H33.8579L33.3334 30.7692L32.8112 33.003H31.1134Z" fill="white"/>
</svg>
